PathFileType	4	(X/Y/Z)	dyn.trc	
DataRate	CameraRate	NumFrames	NumMarkers	Units	OrigDataRate	OrigDataStartFrame	OrigNumFrames	
0.00	0.00	25	15	m	100.00	106	211	
Frame#	Time	RTT			RHF			RLM			RMM			RCA			RPT			RST			RVMB			RTN			RSMB			RFMB			RVMH			RSMH			RFMH			RPM			
		X1	Y1	Z1	X2	Y2	Z2	X3	Y3	Z3	X4	Y4	Z4	X5	Y5	Z5	X6	Y6	Z6	X7	Y7	Z7	X8	Y8	Z8	X9	Y9	Z9	X10	Y10	Z10	X11	Y11	Z11	X12	Y12	Z12	X13	Y13	Z13	X14	Y14	Z14	X15	Y15	Z15	

106	1.050	0.43548	0.42310	-0.12240	0.38452	0.46538	-0.07232	0.20353	0.10160	-0.13021	0.23195	0.11509	-0.20669	0.14274	0.08838	-0.17642	0.19636	0.07729	-0.13453	0.21919	0.08925	-0.20261	0.23757	0.04930	-0.12033	0.25380	0.07139	-0.20093	0.28762	0.07646	-0.14571	0.29703	0.06113	-0.18402	0.28186	0.02585	-0.10055	0.32896	0.03564	-0.13894	0.33529	0.03683	-0.17744	0.36803	0.02149	-0.17323 
107	1.060	0.44119	0.42250	-0.12179	0.39059	0.46547	-0.07188	0.20494	0.10384	-0.12928	0.23366	0.11704	-0.20560	0.14406	0.09171	-0.17561	0.19745	0.07955	-0.13361	0.22052	0.09146	-0.20153	0.23827	0.05057	-0.11966	0.25485	0.07314	-0.20008	0.28866	0.07714	-0.14487	0.29778	0.06195	-0.18328	0.28216	0.02604	-0.10035	0.32922	0.03565	-0.13869	0.33548	0.03692	-0.17716	0.36800	0.02151	-0.17317 
108	1.070	0.44709	0.42185	-0.12111	0.39682	0.46553	-0.07144	0.20646	0.10616	-0.12837	0.23557	0.11906	-0.20448	0.14556	0.09516	-0.17487	0.19865	0.08189	-0.13270	0.22202	0.09374	-0.20043	0.23903	0.05188	-0.11901	0.25605	0.07494	-0.19919	0.28981	0.07782	-0.14399	0.29862	0.06276	-0.18251	0.28246	0.02623	-0.10017	0.32950	0.03564	-0.13844	0.33571	0.03696	-0.17688	0.36799	0.02154	-0.17311 
109	1.080	0.45319	0.42116	-0.12037	0.40324	0.46557	-0.07097	0.20812	0.10858	-0.12746	0.23770	0.12113	-0.20334	0.14727	0.09876	-0.17420	0.19998	0.08433	-0.13180	0.22373	0.09610	-0.19931	0.23987	0.05323	-0.11836	0.25742	0.07678	-0.19827	0.29106	0.07852	-0.14307	0.29958	0.06357	-0.18173	0.28277	0.02640	-0.10002	0.32982	0.03559	-0.13821	0.33599	0.03697	-0.17661	0.36801	0.02156	-0.17305 
110	1.090	0.45951	0.42042	-0.11955	0.40985	0.46559	-0.07047	0.20993	0.11109	-0.12656	0.24007	0.12327	-0.20217	0.14921	0.10249	-0.17358	0.20145	0.08688	-0.13093	0.22565	0.09854	-0.19816	0.24078	0.05463	-0.11773	0.25897	0.07868	-0.19730	0.29244	0.07922	-0.14211	0.30066	0.06436	-0.18094	0.28308	0.02657	-0.09990	0.33016	0.03551	-0.13799	0.33632	0.03693	-0.17635	0.36806	0.02157	-0.17299 
111	1.100	0.46609	0.41965	-0.11864	0.41670	0.46560	-0.06994	0.21191	0.11370	-0.12567	0.24270	0.12547	-0.20095	0.15142	0.10640	-0.17302	0.20309	0.08955	-0.13008	0.22782	0.10107	-0.19698	0.24178	0.05611	-0.11711	0.26073	0.08063	-0.19629	0.29394	0.07993	-0.14112	0.30187	0.06514	-0.18013	0.28339	0.02674	-0.09982	0.33055	0.03541	-0.13779	0.33669	0.03686	-0.17610	0.36813	0.02158	-0.17294 
112	1.110	0.47294	0.41884	-0.11763	0.42379	0.46561	-0.06937	0.21410	0.11643	-0.12477	0.24560	0.12775	-0.19968	0.15392	0.11048	-0.17250	0.20492	0.09235	-0.12923	0.23025	0.10369	-0.19577	0.24288	0.05766	-0.11651	0.26271	0.08264	-0.19522	0.29557	0.08065	-0.14010	0.30323	0.06593	-0.17930	0.28372	0.02693	-0.09977	0.33096	0.03528	-0.13761	0.33711	0.03677	-0.17588	0.36822	0.02158	-0.17291 
113	1.120	0.48009	0.41799	-0.11652	0.43117	0.46562	-0.06875	0.21652	0.11929	-0.12386	0.24879	0.13010	-0.19834	0.15674	0.11476	-0.17201	0.20697	0.09530	-0.12839	0.23296	0.10642	-0.19452	0.24409	0.05931	-0.11590	0.26492	0.08473	-0.19410	0.29735	0.08138	-0.13905	0.30474	0.06674	-0.17847	0.28406	0.02716	-0.09976	0.33140	0.03515	-0.13746	0.33758	0.03667	-0.17568	0.36833	0.02158	-0.17290 
114	1.130	0.48756	0.41711	-0.11531	0.43886	0.46563	-0.06808	0.21920	0.12228	-0.12292	0.25229	0.13255	-0.19694	0.15991	0.11926	-0.17151	0.20926	0.09841	-0.12754	0.23595	0.10927	-0.19322	0.24544	0.06108	-0.11530	0.26736	0.08691	-0.19293	0.29928	0.08215	-0.13799	0.30640	0.06757	-0.17763	0.28443	0.02747	-0.09977	0.33187	0.03503	-0.13732	0.33810	0.03658	-0.17551	0.36844	0.02157	-0.17292 
115	1.140	0.49539	0.41620	-0.11399	0.44689	0.46564	-0.06735	0.22217	0.12541	-0.12195	0.25611	0.13508	-0.19546	0.16345	0.12399	-0.17098	0.21183	0.10171	-0.12667	0.23925	0.11225	-0.19187	0.24694	0.06301	-0.11468	0.27005	0.08920	-0.19170	0.30137	0.08296	-0.13691	0.30822	0.06847	-0.17679	0.28484	0.02788	-0.09980	0.33236	0.03494	-0.13721	0.33866	0.03654	-0.17536	0.36855	0.02157	-0.17296 
116	1.150	0.50358	0.41525	-0.11257	0.45530	0.46566	-0.06657	0.22547	0.12869	-0.12092	0.26026	0.13772	-0.19391	0.16738	0.12898	-0.17039	0.21469	0.10519	-0.12577	0.24286	0.11538	-0.19047	0.24861	0.06511	-0.11405	0.27300	0.09161	-0.19042	0.30364	0.08384	-0.13583	0.31021	0.06945	-0.17594	0.28530	0.02845	-0.09984	0.33289	0.03493	-0.13712	0.33926	0.03656	-0.17523	0.36865	0.02158	-0.17304 
117	1.160	0.51217	0.41427	-0.11106	0.46411	0.46567	-0.06573	0.22913	0.13213	-0.11984	0.26474	0.14048	-0.19228	0.17172	0.13424	-0.16971	0.21787	0.10889	-0.12481	0.24679	0.11867	-0.18903	0.25048	0.06742	-0.11338	0.27619	0.09416	-0.18909	0.30610	0.08481	-0.13474	0.31236	0.07054	-0.17509	0.28584	0.02923	-0.09987	0.33344	0.03501	-0.13704	0.33990	0.03669	-0.17511	0.36875	0.02161	-0.17314 
118	1.170	0.52116	0.41325	-0.10948	0.47334	0.46567	-0.06483	0.23317	0.13574	-0.11869	0.26956	0.14337	-0.19058	0.17649	0.13976	-0.16891	0.22140	0.11280	-0.12379	0.25105	0.12214	-0.18754	0.25256	0.06997	-0.11267	0.27964	0.09688	-0.18773	0.30875	0.08590	-0.13366	0.31468	0.07177	-0.17423	0.28649	0.03025	-0.09987	0.33404	0.03522	-0.13696	0.34061	0.03697	-0.17499	0.36884	0.02168	-0.17327 
119	1.180	0.53057	0.41221	-0.10783	0.48300	0.46565	-0.06386	0.23762	0.13952	-0.11746	0.27473	0.14638	-0.18882	0.18169	0.14557	-0.16797	0.22530	0.11695	-0.12270	0.25564	0.12579	-0.18601	0.25490	0.07278	-0.11190	0.28335	0.09977	-0.18632	0.31163	0.08714	-0.13259	0.31718	0.07318	-0.17336	0.28727	0.03156	-0.09983	0.33470	0.03560	-0.13688	0.34138	0.03742	-0.17486	0.36893	0.02180	-0.17340 
120	1.190	0.54039	0.41114	-0.10614	0.49313	0.46562	-0.06285	0.24251	0.14347	-0.11615	0.28025	0.14954	-0.18700	0.18734	0.15165	-0.16687	0.22959	0.12133	-0.12152	0.26058	0.12963	-0.18446	0.25752	0.07589	-0.11107	0.28733	0.10285	-0.18489	0.31474	0.08856	-0.13152	0.31987	0.07478	-0.17249	0.28823	0.03322	-0.09974	0.33545	0.03618	-0.13677	0.34224	0.03809	-0.17470	0.36904	0.02199	-0.17351 
121	1.200	0.55062	0.41005	-0.10444	0.50371	0.46554	-0.06178	0.24786	0.14759	-0.11476	0.28612	0.15284	-0.18516	0.19344	0.15800	-0.16561	0.23430	0.12594	-0.12025	0.26586	0.13367	-0.18288	0.26046	0.07930	-0.11016	0.29159	0.10613	-0.18345	0.31812	0.09019	-0.13047	0.32277	0.07661	-0.17159	0.28941	0.03524	-0.09956	0.33631	0.03699	-0.13663	0.34322	0.03899	-0.17449	0.36920	0.02227	-0.17360 
122	1.210	0.56125	0.40894	-0.10274	0.51474	0.46543	-0.06067	0.25367	0.15188	-0.11330	0.29236	0.15627	-0.18329	0.20000	0.16459	-0.16418	0.23943	0.13078	-0.11889	0.27151	0.13790	-0.18130	0.26374	0.08302	-0.10917	0.29613	0.10960	-0.18200	0.32177	0.09203	-0.12943	0.32592	0.07867	-0.17068	0.29085	0.03766	-0.09930	0.33733	0.03805	-0.13642	0.34438	0.04016	-0.17421	0.36946	0.02266	-0.17362 
123	1.220	0.57227	0.40783	-0.10108	0.52623	0.46528	-0.05953	0.25997	0.15633	-0.11177	0.29895	0.15984	-0.18144	0.20703	0.17138	-0.16261	0.24501	0.13584	-0.11745	0.27752	0.14230	-0.17973	0.26743	0.08707	-0.10810	0.30099	0.11327	-0.18055	0.32575	0.09411	-0.12838	0.32933	0.08097	-0.16975	0.29261	0.04049	-0.09893	0.33857	0.03938	-0.13615	0.34576	0.04160	-0.17383	0.36985	0.02318	-0.17354 
124	1.230	0.58366	0.40674	-0.09948	0.53814	0.46508	-0.05835	0.26674	0.16093	-0.11020	0.30592	0.16354	-0.17961	0.21452	0.17835	-0.16091	0.25105	0.14108	-0.11595	0.28391	0.14685	-0.17818	0.27154	0.09142	-0.10695	0.30618	0.11711	-0.17911	0.33007	0.09644	-0.12734	0.33306	0.08352	-0.16877	0.29474	0.04373	-0.09844	0.34008	0.04100	-0.13577	0.34744	0.04331	-0.17333	0.37047	0.02386	-0.17332 
125	1.240	0.59539	0.40566	-0.09796	0.55046	0.46484	-0.05715	0.27400	0.16567	-0.10861	0.31327	0.16734	-0.17783	0.22247	0.18543	-0.15913	0.25755	0.14649	-0.11441	0.29071	0.15154	-0.17667	0.27612	0.09605	-0.10573	0.31174	0.12110	-0.17771	0.33477	0.09901	-0.12629	0.33716	0.08630	-0.16776	0.29730	0.04737	-0.09783	0.34195	0.04291	-0.13527	0.34948	0.04530	-0.17269	0.37140	0.02470	-0.17292 
126	1.250	0.60743	0.40464	-0.09654	0.56316	0.46457	-0.05594	0.28173	0.17053	-0.10702	0.32101	0.17123	-0.17613	0.23088	0.19256	-0.15731	0.26454	0.15203	-0.11285	0.29791	0.15633	-0.17522	0.28122	0.10095	-0.10445	0.31770	0.12523	-0.17633	0.33990	0.10183	-0.12522	0.34167	0.08929	-0.16669	0.30035	0.05137	-0.09710	0.34426	0.04510	-0.13462	0.35198	0.04755	-0.17187	0.37273	0.02573	-0.17230 
127	1.260	0.61976	0.40367	-0.09524	0.57620	0.46427	-0.05473	0.28992	0.17548	-0.10546	0.32915	0.17519	-0.17453	0.23974	0.19969	-0.15551	0.27200	0.15767	-0.11132	0.30554	0.16118	-0.17384	0.28685	0.10607	-0.10313	0.32410	0.12945	-0.17501	0.34549	0.10487	-0.12414	0.34666	0.09248	-0.16556	0.30396	0.05571	-0.09623	0.34710	0.04757	-0.13380	0.35504	0.05003	-0.17086	0.37459	0.02696	-0.17142 
128	1.270	0.63235	0.40279	-0.09406	0.58954	0.46396	-0.05352	0.29857	0.18049	-0.10398	0.33769	0.17919	-0.17305	0.24903	0.20673	-0.15379	0.27995	0.16335	-0.10984	0.31361	0.16605	-0.17256	0.29307	0.11137	-0.10179	0.33098	0.13372	-0.17374	0.35159	0.10813	-0.12302	0.35220	0.09583	-0.16437	0.30818	0.06034	-0.09524	0.35055	0.05031	-0.13280	0.35875	0.05273	-0.16964	0.37707	0.02839	-0.17024 
129	1.280	0.64515	0.40202	-0.09300	0.60314	0.46365	-0.05233	0.30764	0.18555	-0.10259	0.34665	0.18321	-0.17171	0.25874	0.21361	-0.15221	0.28838	0.16903	-0.10845	0.32212	0.17088	-0.17139	0.29989	0.11679	-0.10044	0.33837	0.13801	-0.17253	0.35824	0.11158	-0.12187	0.35834	0.09931	-0.16310	0.31307	0.06519	-0.09412	0.35473	0.05328	-0.13158	0.36320	0.05561	-0.16819	0.38032	0.03003	-0.16874 
130	1.290	0.65816	0.40137	-0.09206	0.61696	0.46337	-0.05116	0.31713	0.19061	-0.10133	0.35603	0.18721	-0.17054	0.26884	0.22026	-0.15083	0.29729	0.17467	-0.10720	0.33110	0.17564	-0.17034	0.30734	0.12228	-0.09911	0.34631	0.14227	-0.17139	0.36549	0.11521	-0.12068	0.36514	0.10288	-0.16176	0.31870	0.07023	-0.09288	0.35970	0.05647	-0.13015	0.36849	0.05863	-0.16651	0.38443	0.03187	-0.16690 
